P3
16 16
255
79 111 204 79 111 204 79 111 204 79 111 204 79 111 204 79 111 204 79 111 204 79 111 204 79 111 204 79 111 204 79 111 204 79 111 204 79 111 204 79 111 204 79 111 204 79 111 204 
79 111 204 79 111 204 79 111 204 73 104 193 73 104 193 79 111 204 79 111 204 79 111 204 79 111 204 79 111 204 79 111 204 79 111 204 79 111 204 79 111 204 79 111 204 79 111 204 
79 111 204 79 111 204 73 104 193 73 104 193 79 111 204 79 111 204 79 111 204 79 111 204 79 111 204 73 104 193 79 111 204 73 104 193 79 111 204 79 111 204 73 104 193 79 111 204 
79 111 204 79 111 204 79 111 204 73 104 193 79 111 204 79 111 204 79 111 204 73 104 193 73 104 193 79 111 204 73 104 193 79 111 204 79 111 204 79 111 204 73 104 193 79 111 204 
79 111 204 79 111 204 79 111 204 79 111 204 79 111 204 79 111 204 79 111 204 79 111 204 79 111 204 79 111 204 79 111 204 79 111 204 79 111 204 73 104 193 79 111 204 79 111 204 
79 111 204 79 111 204 79 111 204 79 111 204 79 111 204 79 111 204 79 111 204 79 111 204 79 111 204 79 111 204 79 111 204 79 111 204 79 111 204 73 104 193 79 111 204 79 111 204 
79 111 204 79 111 204 79 111 204 79 111 204 79 111 204 73 104 193 79 111 204 79 111 204 79 111 204 79 111 204 73 104 193 79 111 204 79 111 204 79 111 204 79 111 204 79 111 204 
79 111 204 79 111 204 79 111 204 73 104 193 73 104 193 79 111 204 73 104 193 79 111 204 79 111 204 79 111 204 79 111 204 73 104 193 73 104 193 79 111 204 79 111 204 79 111 204 
79 111 204 79 111 204 79 111 204 79 111 204 79 111 204 79 111 204 73 104 193 79 111 204 79 111 204 79 111 204 79 111 204 79 111 204 73 104 193 79 111 204 79 111 204 79 111 204 
79 111 204 79 111 204 79 111 204 79 111 204 79 111 204 79 111 204 79 111 204 79 111 204 79 111 204 79 111 204 79 111 204 79 111 204 79 111 204 79 111 204 79 111 204 79 111 204 
79 111 204 79 111 204 73 104 193 79 111 204 79 111 204 79 111 204 79 111 204 79 111 204 79 111 204 79 111 204 79 111 204 79 111 204 79 111 204 73 104 193 79 111 204 79 111 204 
79 111 204 73 104 193 79 111 204 73 104 193 79 111 204 79 111 204 79 111 204 79 111 204 79 111 204 73 104 193 79 111 204 79 111 204 79 111 204 73 104 193 79 111 204 79 111 204 
79 111 204 79 111 204 73 104 193 79 111 204 79 111 204 79 111 204 79 111 204 79 111 204 79 111 204 79 111 204 73 104 193 79 111 204 79 111 204 79 111 204 73 104 193 79 111 204 
79 111 204 79 111 204 79 111 204 79 111 204 79 111 204 79 111 204 73 104 193 73 104 193 79 111 204 73 104 193 79 111 204 79 111 204 79 111 204 79 111 204 79 111 204 79 111 204 
79 111 204 79 111 204 79 111 204 79 111 204 73 104 193 73 104 193 79 111 204 79 111 204 79 111 204 79 111 204 79 111 204 79 111 204 79 111 204 79 111 204 79 111 204 79 111 204 
79 111 204 79 111 204 79 111 204 79 111 204 79 111 204 79 111 204 79 111 204 79 111 204 79 111 204 79 111 204 79 111 204 79 111 204 79 111 204 79 111 204 79 111 204 79 111 204 
